<svg xmlns="http://www.w3.org/2000/svg" width="328" height="217" fill="none">
    <path fill="#c5e9fd"
        d="m56.414 84.94-36.423 9.19c-9.64 2.432-15.482 12.217-13.05 21.856l9.038 35.825c2.432 9.639 12.217 15.481 21.856 13.05l36.424-9.19c9.639-2.431 15.481-12.217 13.05-21.856L78.27 97.991c-2.431-9.64-12.217-15.482-21.856-13.05" />
    <path fill="#7b7ced"
        d="M62.94 118.612c2.237.572 3.016 3.352 1.402 5.004l-19.325 19.773c-1.614 1.651-4.41.936-5.034-1.288l-7.461-26.622c-.624-2.224 1.394-4.288 3.632-3.716z" />
    <path fill="#efeefd"
        d="m180.107 201.569 2.375 1.055c.792.352.792 1.476 0 1.828l-2.375 1.055a13 13 0 0 0-6.6 6.6l-1.055 2.375c-.352.792-1.476.792-1.828 0l-1.055-2.375a13 13 0 0 0-6.6-6.6l-2.375-1.055c-.792-.352-.792-1.476 0-1.828l2.375-1.055a13 13 0 0 0 6.6-6.6l1.055-2.375c.352-.792 1.476-.792 1.828 0l1.055 2.375a13 13 0 0 0 6.6 6.6" />
    <path fill="#b7aef6"
        d="m20.107 9.568 2.375 1.056c.791.352.791 1.476 0 1.828l-2.375 1.055a13 13 0 0 0-6.6 6.6l-1.055 2.375c-.352.791-1.476.791-1.828 0l-1.056-2.375a13 13 0 0 0-6.6-6.6L.595 12.452c-.792-.352-.792-1.476 0-1.828l2.375-1.056a13 13 0 0 0 6.6-6.6L10.623.595c.352-.792 1.476-.792 1.828 0l1.055 2.375a13 13 0 0 0 6.6 6.6" />
    <path fill="#b4acf7" d="M105.538 190.538a5 5 0 1 0-.001-10.001 5 5 0 0 0 .001 10.001" />
    <path fill="#dedcfe"
        d="m310.466 206.639-28.28 9.112a15 15 0 0 1-15.123-3.587l-19.456-19.151a15 15 0 0 1-4.049-14.248l6.769-27.718A15 15 0 0 1 258.582 141l26.386-12.251a15 15 0 0 1 16.446 2.541l21.646 19.817a15 15 0 0 1 4.477 14.483l-7.066 30.19a15 15 0 0 1-10.005 10.859" />
    <path fill="#d0cdfd"
        d="m243.558 178.764 6.769-27.717A15 15 0 0 1 258.582 141l14.456-6.712 4.5-2.089-9 16.839v7.5l14.5 19.5v24l6.5 13.344-7.352 2.369a15 15 0 0 1-15.123-3.587l-19.456-19.152a15 15 0 0 1-4.049-14.248" />
    <path fill="#5961da"
        d="m297.087 188.984-17.993 5.663a5 5 0 0 1-4.967-1.165l-12.502-12.022a5 5 0 0 1-1.385-4.816l4.201-16.805a5 5 0 0 1 2.785-3.341l16.787-7.614a5 5 0 0 1 5.398.827l13.902 12.433a5 5 0 0 1 1.53 4.892l-4.395 18.344a5 5 0 0 1-3.361 3.604" />
    <path fill="#1d247e"
        d="m112.428 101.799 8.61-35.261 55.5 35.5 60-8.5-7.44 33.067a20.05 20.05 0 0 1-15.976 15.327l-11.239 2.043a66 66 0 0 1-11.786 1.063h-4.801a100 100 0 0 1-37.139-7.152l-4.898-1.96a71.5 71.5 0 0 1-17.92-10.399l-6.569-5.217a18.14 18.14 0 0 1-6.342-18.511" />
    <path fill="#2f39a9"
        d="m112.419 101.833 8.619-35.295 5 3.198 37 72.802-6-1.5-5.774-1.777a77.3 77.3 0 0 1-25.018-13.096l-7.439-5.844a18.065 18.065 0 0 1-6.388-18.488" />
    <path fill="#5f64e0"
        d="m182.222 96.149 113.316-23.611-.882 6.177a6 6 0 0 1-4.921 5.064l-109.427 18.855a6 6 0 0 1-4.319-.895L82.228 39.203a6 6 0 0 1-2.608-5.855l.918-6.31 97.011 68.147a6 6 0 0 0 4.673.964" />
    <path fill="#2e37a4"
        d="M83.113 33.385c-4.66-3.057-2.998-10.26 2.53-10.968L192.489 8.74a6 6 0 0 1 3.825.793l96.264 57.157c4.792 2.845 3.455 10.115-2.035 11.07L182.375 96.572a6 6 0 0 1-4.32-.895z" />
    <path fill="#5d51e9"
        d="m254.235 162.892-4.107 2.691a17.74 17.74 0 0 1-18.525.563 1.42 1.42 0 0 1-.618-1.75l14.053-35.858 10.034 32.014a2.06 2.06 0 0 1-.837 2.34" />
    <path stroke="#6450f6" stroke-linecap="round" stroke-width="3"
        d="m191.538 49.538 53.348 33.113a9 9 0 0 1 4.227 8.346l-2.575 33.041" />
    <path fill="#8580f1"
        d="M189.736 57.036c4.528 1.18 8.861-.408 9.679-3.546s-2.191-6.637-6.719-7.816-8.862.408-9.679 3.545 2.191 6.638 6.719 7.817" />
    <path fill="#a99ef5" stroke="#7263f2" stroke-width="2" d="M245.538 138.538a7 7 0 1 0 0-14 7 7 0 0 0 0 14Z" />
</svg>
