<svg width="182" height="170" viewBox="0 0 182 170" fill="none" xmlns="http://www.w3.org/2000/svg">
<g clip-path="url(#clip0_308_1811)">
<path d="M120 124C154.242 124 182 96.2417 182 62C182 27.7583 154.242 0 120 0C85.7583 0 58 27.7583 58 62C58 96.2417 85.7583 124 120 124Z" fill="#F7F7FE" fill-opacity="0.5"/>
<path d="M95.8684 66.256L23.9671 70.0242C10.7304 70.7179 0.562359 82.0107 1.25606 95.2474L3.61118 140.186C4.30489 153.422 15.5977 163.59 28.8344 162.897L100.736 159.129C113.972 158.435 124.14 147.142 123.447 133.905L121.092 88.9671C120.398 75.7304 109.105 65.5623 95.8684 66.256Z" fill="url(#paint0_linear_308_1811)"/>
<g filter="url(#filter0_d_308_1811)">
<path d="M153.026 136.209L142.022 48.1753C141.444 43.5481 137.427 40.1291 132.766 40.2975L102.175 41.4032C100.504 41.4636 98.9736 42.3554 98.0972 43.7795L96.9643 45.6204C96.0543 47.0991 94.4423 47.9999 92.706 47.9999H71.294C69.5577 47.9999 67.9457 47.0991 67.0357 45.6204L65.9232 43.8125C65.0356 42.3703 63.4783 41.4753 61.7853 41.4345L32.5898 40.731C27.3952 40.6058 23.1742 44.893 23.38 50.0849L27.0609 142.925C27.3029 149.028 32.4705 153.765 38.5714 153.477L142.63 148.561C149.032 148.258 153.821 142.568 153.026 136.209Z" fill="url(#paint1_linear_308_1811)"/>
<path d="M153.026 136.209L142.022 48.1753C141.444 43.5481 137.427 40.1291 132.766 40.2975L102.175 41.4032C100.504 41.4636 98.9736 42.3554 98.0972 43.7795L96.9643 45.6204C96.0543 47.0991 94.4423 47.9999 92.706 47.9999H71.294C69.5577 47.9999 67.9457 47.0991 67.0357 45.6204L65.9232 43.8125C65.0356 42.3703 63.4783 41.4753 61.7853 41.4345L32.5898 40.731C27.3952 40.6058 23.1742 44.893 23.38 50.0849L27.0609 142.925C27.3029 149.028 32.4705 153.765 38.5714 153.477L142.63 148.561C149.032 148.258 153.821 142.568 153.026 136.209Z" fill="url(#paint2_linear_308_1811)"/>
</g>
<g filter="url(#filter1_d_308_1811)">
<path d="M148.37 138.964L150.733 59.6318C150.888 54.422 146.599 50.1701 141.391 50.3706L115.528 51.3659C113.813 51.4319 112.251 52.3736 111.392 53.8602L110.529 55.3525C109.636 56.8983 107.986 57.8505 106.2 57.8505H84.2011H50.5364C45.9758 57.8505 42.1361 61.2618 41.599 65.7906L32.554 142.064C31.7519 148.828 37.2274 154.688 44.0301 154.346L137.928 149.622C143.655 149.334 148.2 144.695 148.37 138.964Z" fill="url(#paint3_linear_308_1811)"/>
</g>
<path d="M92.417 68.4187L89.4211 68.2617C86.6635 68.1172 84.3108 70.2355 84.1663 72.9931L83.8523 78.9849C83.7078 81.7426 85.8261 84.0952 88.5838 84.2398L91.5796 84.3968C94.3373 84.5413 96.6899 82.4229 96.8345 79.6653L97.1485 73.6735C97.293 70.9159 95.1747 68.5632 92.417 68.4187Z" fill="#B4ADF1"/>
<path d="M75.417 68.4187L72.4211 68.2617C69.6635 68.1172 67.3108 70.2355 67.1663 72.9931L66.8523 78.9849C66.7078 81.7426 68.8261 84.0952 71.5838 84.2398L74.5796 84.3968C77.3373 84.5413 79.6899 82.4229 79.8345 79.6653L80.1485 73.6735C80.293 70.9159 78.1747 68.5632 75.417 68.4187Z" fill="#B4ADF1"/>
<path d="M58.417 68.4187L55.4211 68.2617C52.6635 68.1172 50.3108 70.2355 50.1663 72.9931L49.8523 78.9849C49.7078 81.7426 51.8261 84.0952 54.5838 84.2398L57.5796 84.3968C60.3373 84.5413 62.6899 82.4229 62.8345 79.6653L63.1485 73.6735C63.293 70.9159 61.1747 68.5632 58.417 68.4187Z" fill="#B4ADF1"/>
<g filter="url(#filter2_d_308_1811)">
<path d="M153.53 138.955L158.626 81.8055C159.096 76.5403 154.948 72.0061 149.662 72.0061H120.46C118.698 72.0061 117.067 72.9333 116.165 74.4469L115.177 76.1043C114.275 77.6179 112.644 78.545 110.882 78.545H90.2668C88.505 78.545 86.8732 77.6179 85.9714 76.1043L84.9421 74.3768C84.063 72.9013 82.4881 71.9803 80.7712 71.9375L50.8703 71.1932C46.4113 71.0823 42.5437 74.254 41.7795 78.6484L35.8048 113L33.9786 123.5L33.0655 128.75L32.1524 134L30.4792 143.62C30.3908 144.129 29.9495 144.5 29.4334 144.5C28.8996 144.5 28.4489 144.104 28.3806 143.574L26.5 129L27 141V143.5L27.1829 144.902C27.9262 150.601 32.9304 154.767 38.6689 154.465L143.152 148.963C148.62 148.675 153.043 144.409 153.53 138.955Z" fill="url(#paint4_linear_308_1811)"/>
<path d="M153.53 138.955L158.626 81.8055C159.096 76.5403 154.948 72.0061 149.662 72.0061H120.46C118.698 72.0061 117.067 72.9333 116.165 74.4469L115.177 76.1043C114.275 77.6179 112.644 78.545 110.882 78.545H90.2668C88.505 78.545 86.8732 77.6179 85.9714 76.1043L84.9421 74.3768C84.063 72.9013 82.4881 71.9803 80.7712 71.9375L50.8703 71.1932C46.4113 71.0823 42.5437 74.254 41.7795 78.6484L35.8048 113L33.9786 123.5L33.0655 128.75L32.1524 134L30.4792 143.62C30.3908 144.129 29.9495 144.5 29.4334 144.5C28.8996 144.5 28.4489 144.104 28.3806 143.574L26.5 129L27 141V143.5L27.1829 144.902C27.9262 150.601 32.9304 154.767 38.6689 154.465L143.152 148.963C148.62 148.675 153.043 144.409 153.53 138.955Z" fill="url(#paint5_linear_308_1811)"/>
</g>
<path d="M91.0265 128.986C90.5307 125.852 97.1391 124.638 99.4221 124.115C103.426 123.198 112.002 127.992 115.208 130.285C117.169 131.687 114.871 130.934 114.871 130.934C114.871 130.934 107.147 129.635 97.7428 132.882C93.0416 133.531 91.4074 131.393 91.0265 128.986Z" stroke="#EFEBFD" stroke-width="2"/>
<path d="M129.965 117.133C131.146 116.88 132.376 116.989 133.493 117.447L174.47 134.205C178.037 135.664 179.753 139.733 178.31 143.307L169.504 165.101C168.062 168.669 164.01 170.405 160.433 168.986L117.54 151.965C116.362 151.498 115.363 150.669 114.685 149.598L106.931 137.357C105.893 135.718 105.712 133.679 106.443 131.883L109.58 124.183C110.329 122.345 111.939 120.996 113.88 120.58L129.965 117.133ZM120.013 127.067C117.251 127.067 115.013 129.305 115.013 132.067C115.013 134.828 117.251 137.067 120.013 137.067C122.774 137.067 125.013 134.828 125.013 132.067C125.013 129.305 122.774 127.067 120.013 127.067Z" fill="url(#paint6_linear_308_1811)"/>
<path d="M169.504 165.098C168.062 168.667 164.01 170.402 160.433 168.983L117.54 151.962C116.362 151.495 115.363 150.666 114.685 149.595L106.931 137.354C105.893 135.715 105.712 133.676 106.443 131.88L106.903 130.794C106.172 132.591 106.353 134.63 107.391 136.268L115.145 148.509C115.823 149.58 116.822 150.409 118 150.876L160.893 167.897C164.396 169.287 168.355 167.651 169.871 164.231L169.964 164.012C169.934 164.086 169.903 164.159 169.871 164.231L169.504 165.098Z" fill="#767BE3"/>
</g>
<defs>
<filter id="filter0_d_308_1811" x="17.4728" y="37.3915" width="135.64" height="118.998" filterUnits="userSpaceOnUse" color-interpolation-filters="sRGB">
<feFlood flood-opacity="0" result="BackgroundImageFix"/>
<feColorMatrix in="SourceAlpha" type="matrix" values="0 0 0 0 0 0 0 0 0 0 0 0 0 0 0 0 0 0 127 0" result="hardAlpha"/>
<feOffset dx="-3"/>
<feGaussianBlur stdDeviation="1.45"/>
<feComposite in2="hardAlpha" operator="out"/>
<feColorMatrix type="matrix" values="0 0 0 0 0.658824 0 0 0 0 0.627451 0 0 0 0 0.913725 0 0 0 1 0"/>
<feBlend mode="normal" in2="BackgroundImageFix" result="effect1_dropShadow_308_1811"/>
<feBlend mode="normal" in="SourceGraphic" in2="effect1_dropShadow_308_1811" result="shape"/>
</filter>
<filter id="filter1_d_308_1811" x="23.4758" y="45.3638" width="127.261" height="111.997" filterUnits="userSpaceOnUse" color-interpolation-filters="sRGB">
<feFlood flood-opacity="0" result="BackgroundImageFix"/>
<feColorMatrix in="SourceAlpha" type="matrix" values="0 0 0 0 0 0 0 0 0 0 0 0 0 0 0 0 0 0 127 0" result="hardAlpha"/>
<feOffset dx="-5" dy="-1"/>
<feGaussianBlur stdDeviation="2"/>
<feComposite in2="hardAlpha" operator="out"/>
<feColorMatrix type="matrix" values="0 0 0 0 0.670588 0 0 0 0 0.635294 0 0 0 0 0.92549 0 0 0 1 0"/>
<feBlend mode="normal" in2="BackgroundImageFix" result="effect1_dropShadow_308_1811"/>
<feBlend mode="normal" in="SourceGraphic" in2="effect1_dropShadow_308_1811" result="shape"/>
</filter>
<filter id="filter2_d_308_1811" x="19.5" y="67.1904" width="140.162" height="91.29" filterUnits="userSpaceOnUse" color-interpolation-filters="sRGB">
<feFlood flood-opacity="0" result="BackgroundImageFix"/>
<feColorMatrix in="SourceAlpha" type="matrix" values="0 0 0 0 0 0 0 0 0 0 0 0 0 0 0 0 0 0 127 0" result="hardAlpha"/>
<feOffset dx="-3"/>
<feGaussianBlur stdDeviation="2"/>
<feComposite in2="hardAlpha" operator="out"/>
<feColorMatrix type="matrix" values="0 0 0 0 0.658824 0 0 0 0 0.627451 0 0 0 0 0.913725 0 0 0 1 0"/>
<feBlend mode="normal" in2="BackgroundImageFix" result="effect1_dropShadow_308_1811"/>
<feBlend mode="normal" in="SourceGraphic" in2="effect1_dropShadow_308_1811" result="shape"/>
</filter>
<linearGradient id="paint0_linear_308_1811" x1="59.9178" y1="68.1401" x2="64.785" y2="161.012" gradientUnits="userSpaceOnUse">
<stop stop-color="white" stop-opacity="0"/>
<stop offset="0.524038" stop-color="#EFF0FB" stop-opacity="0.5"/>
<stop offset="1" stop-color="#DBDDF3" stop-opacity="0.5"/>
</linearGradient>
<linearGradient id="paint1_linear_308_1811" x1="137.5" y1="44.9999" x2="39" y2="143.5" gradientUnits="userSpaceOnUse">
<stop stop-color="#E3E1FC"/>
<stop offset="1" stop-color="#A9A2EE"/>
</linearGradient>
<linearGradient id="paint2_linear_308_1811" x1="81.5" y1="93.9999" x2="23" y2="96.9999" gradientUnits="userSpaceOnUse">
<stop offset="0.884615" stop-color="#B4AEF0" stop-opacity="0"/>
<stop offset="0.929747" stop-color="#ABA3EB"/>
<stop offset="1" stop-color="#ABA3EB"/>
</linearGradient>
<linearGradient id="paint3_linear_308_1811" x1="116.433" y1="52.9439" x2="80.8198" y2="142.251" gradientUnits="userSpaceOnUse">
<stop stop-color="#EDEFFD"/>
<stop offset="1" stop-color="#EBEDFC"/>
</linearGradient>
<linearGradient id="paint4_linear_308_1811" x1="93.7565" y1="79.048" x2="111.866" y2="155.692" gradientUnits="userSpaceOnUse">
<stop stop-color="#E2DDFD"/>
<stop offset="1" stop-color="#C8C3FB"/>
</linearGradient>
<linearGradient id="paint5_linear_308_1811" x1="27" y1="134.5" x2="38.5" y2="134.5" gradientUnits="userSpaceOnUse">
<stop stop-color="#ABA3EB"/>
<stop offset="1" stop-color="#CCC9FC"/>
</linearGradient>
<linearGradient id="paint6_linear_308_1811" x1="155.731" y1="126" x2="142.231" y2="161.5" gradientUnits="userSpaceOnUse">
<stop stop-color="#B6A0F9"/>
<stop offset="0.514423" stop-color="#9B93F0"/>
<stop offset="1" stop-color="#8787EA"/>
</linearGradient>
<clipPath id="clip0_308_1811">
<rect width="182" height="170" fill="white"/>
</clipPath>
</defs>
</svg>
