<svg width="140" height="58" viewBox="0 0 140 58" fill="none" xmlns="http://www.w3.org/2000/svg">
<path d="M16.5 6.03223L16.8019 5.3277C17.4118 3.9048 16.527 2.28673 15 2.03223" stroke="#F65757" stroke-width="2" stroke-linecap="round"/>
<path d="M9.5 56.0322C10.2101 54.3754 8.99473 52.5322 7.19211 52.5322H6" stroke="#F06B6B" stroke-width="2" stroke-linecap="round"/>
<path d="M5.5 27.0322C4.55573 28.2913 3.07379 29.0322 1.5 29.0322H1" stroke="#874BB4" stroke-width="2" stroke-linecap="round"/>
<path d="M127.618 1C127.618 2.73117 128.87 4.20859 130.578 4.4932L130.618 4.5" stroke="#F65757" stroke-width="2" stroke-linecap="round"/>
<path d="M135.618 30L136.294 29.0342C137.089 27.8986 135.885 26.437 134.618 27" stroke="#515EBF" stroke-width="2" stroke-linecap="round"/>
<path d="M132.121 54.9945C131.231 53.2158 128.535 54.2256 129.033 56.1513L129.122 56.4957" stroke="#5DBC66" stroke-width="2" stroke-linecap="round"/>
</svg>
