<svg width="256" height="84" viewBox="0 0 256 84" fill="none" xmlns="http://www.w3.org/2000/svg">
    <path
        d="M1.23752 50.003L0.91488 50.1845C0.810615 50.2431 0.716827 50.3187 0.637351 50.4081C0.27387 50.817 0.27387 51.4332 0.637351 51.8422C0.716827 51.9316 0.810615 52.0071 0.91488 52.0658L1.23752 52.2473C2.89287 53.1784 4.20361 54.6188 4.97497 56.3543L5.24556 56.9632C5.2828 57.047 5.33278 57.1245 5.39371 57.1931C5.74788 57.5915 6.37044 57.5915 6.72461 57.1931C6.78554 57.1245 6.83551 57.047 6.87276 56.9632L7.14334 56.3543C7.91471 54.6188 9.22545 53.1784 10.8808 52.2473L11.2034 52.0658C11.3077 52.0071 11.4015 51.9316 11.481 51.8422C11.8444 51.4332 11.8444 50.817 11.481 50.4081C11.4015 50.3187 11.3077 50.2431 11.2034 50.1845L10.8808 50.003C9.22545 49.0719 7.91471 47.6315 7.14334 45.8959L6.87276 45.2871C6.83551 45.2033 6.78554 45.1258 6.72461 45.0572C6.37044 44.6588 5.74788 44.6588 5.39371 45.0572C5.33278 45.1258 5.2828 45.2033 5.24556 45.2871L4.97497 45.8959C4.20361 47.6315 2.89287 49.0719 1.23752 50.003Z"
        fill="#AE97F8" />
    <path
        d="M82.7275 34.9456L82.4855 35.0817C82.4073 35.1257 82.3369 35.1824 82.2773 35.2495C82.0047 35.5561 82.0047 36.0183 82.2773 36.325C82.3369 36.392 82.4073 36.4487 82.4855 36.4927L82.7275 36.6288C83.969 37.3272 84.952 38.4074 85.5305 39.7091L85.7335 40.1657C85.7614 40.2286 85.7989 40.2867 85.8446 40.3382C86.1102 40.637 86.5771 40.637 86.8428 40.3382C86.8885 40.2867 86.926 40.2286 86.9539 40.1657L87.1568 39.7091C87.7353 38.4074 88.7184 37.3272 89.9599 36.6288L90.2019 36.4927C90.2801 36.4487 90.3504 36.392 90.41 36.325C90.6827 36.0183 90.6827 35.5561 90.41 35.2495C90.3504 35.1824 90.2801 35.1257 90.2019 35.0817L89.9599 34.9456C88.7184 34.2473 87.7353 33.167 87.1568 31.8653L86.9539 31.4087C86.926 31.3459 86.8885 31.2877 86.8428 31.2363C86.5771 30.9374 86.1102 30.9374 85.8446 31.2363C85.7989 31.2877 85.7614 31.3459 85.7335 31.4087L85.5305 31.8653C84.952 33.167 83.969 34.2473 82.7275 34.9456Z"
        fill="#AE97F8" />
    <path
        d="M195.131 22.7364L194.808 22.9179C194.704 22.9765 194.61 23.0521 194.53 23.1415C194.167 23.5504 194.167 24.1666 194.53 24.5756C194.61 24.665 194.704 24.7405 194.808 24.7992L195.131 24.9807C196.786 25.9118 198.097 27.3522 198.868 29.0877L199.139 29.6966C199.176 29.7804 199.226 29.8579 199.287 29.9265C199.641 30.3249 200.264 30.3249 200.618 29.9265C200.679 29.8579 200.729 29.7804 200.766 29.6966L201.036 29.0877C201.808 27.3522 203.119 25.9118 204.774 24.9807L205.097 24.7992C205.201 24.7405 205.295 24.665 205.374 24.5756C205.738 24.1666 205.738 23.5504 205.374 23.1415C205.295 23.0521 205.201 22.9765 205.097 22.9179L204.774 22.7364C203.119 21.8053 201.808 20.3649 201.036 18.6293L200.766 18.0205C200.729 17.9367 200.679 17.8592 200.618 17.7906C200.264 17.3922 199.641 17.3922 199.287 17.7906C199.226 17.8592 199.176 17.9367 199.139 18.0205L198.868 18.6293C198.097 20.3649 196.786 21.8053 195.131 22.7364Z"
        fill="#AE97F8" />
    <path
        d="M55.4609 28.1292L55.2189 28.2653C55.1407 28.3093 55.0703 28.366 55.0107 28.433C54.7381 28.7397 54.7381 29.2019 55.0107 29.5086C55.0703 29.5756 55.1407 29.6323 55.2189 29.6763L55.4609 29.8124C56.7024 30.5108 57.6854 31.591 58.2639 32.8927L58.4669 33.3493C58.4948 33.4122 58.5323 33.4703 58.578 33.5217C58.8436 33.8206 59.3105 33.8206 59.5762 33.5217C59.6219 33.4703 59.6593 33.4122 59.6873 33.3493L59.8902 32.8927C60.4687 31.591 61.4518 30.5108 62.6933 29.8124L62.9353 29.6763C63.0135 29.6323 63.0838 29.5756 63.1434 29.5086C63.4161 29.2019 63.4161 28.7397 63.1434 28.433C63.0838 28.366 63.0135 28.3093 62.9353 28.2653L62.6933 28.1292C61.4518 27.4309 60.4687 26.3506 59.8902 25.0489L59.6873 24.5923C59.6593 24.5294 59.6219 24.4713 59.5762 24.4199C59.3105 24.121 58.8436 24.121 58.578 24.4199C58.5323 24.4713 58.4948 24.5294 58.4669 24.5923L58.2639 25.0489C57.6854 26.3506 56.7024 27.4309 55.4609 28.1292Z"
        fill="#E5E1FB" />
    <path d="M256 83.5037L202.982 46.0127L151.479 83.5037H256Z" fill="url(#paint0_linear_328_1418)" />
    <path d="M145.42 20.4502L213.586 83.5033H63.6216L145.42 20.4502Z" fill="url(#paint1_linear_328_1418)" />
    <path
        d="M144.663 0.200001V22.1538H146.178V13.6331V0.2C146.178 0.0895431 146.088 0 145.978 0H144.863C144.752 0 144.663 0.0895438 144.663 0.200001Z"
        fill="#907FF2" />
    <path
        d="M146.178 14.1448V0.511719L150.629 3.51603C152.692 4.90918 154.998 5.90465 157.428 6.45125L161.326 7.32827L156.875 10.3326C154.811 11.7257 152.505 12.7212 150.076 13.2678L146.178 14.1448Z"
        fill="url(#paint2_linear_328_1418)" />
    <path
        d="M125.728 35.7874L145.42 20.4502L137.846 34.0833H136.472C135.374 34.0833 134.28 34.2341 133.223 34.5315L131.787 34.9354L130.351 35.3392C129.294 35.6366 128.2 35.7874 127.102 35.7874H125.728Z"
        fill="#EAE6FE" />
    <path d="M145.42 20.4502L213.586 83.5033H164.052L145.42 20.4502Z" fill="url(#paint3_linear_328_1418)" />
    <path d="M132.151 44.3081L145.42 20.4502L140.876 40.8998L132.151 44.3081Z" fill="url(#paint4_linear_328_1418)" />
    <path
        d="M140.876 40.8998L137.846 34.0833L145.42 20.4502L149.965 35.7874L147.299 36.787C146.053 37.2543 144.88 37.897 143.815 38.6956L140.876 40.8998Z"
        fill="#B5A6FB" />
    <path d="M149.965 35.7874L145.42 20.4502L158.296 32.3792L157.538 35.7874H149.965Z" fill="#A897FB" />
    <path d="M59.077 52.8281L99.9763 83.5026H45.4438L57.5622 66.4612L59.077 52.8281Z"
        fill="url(#paint5_linear_328_1418)" />
    <path d="M57.563 66.4612L59.0778 52.8281L15.1489 83.5026H45.4447L57.563 66.4612Z"
        fill="url(#paint6_linear_328_1418)" />
    <defs>
        <linearGradient id="paint0_linear_328_1418" x1="203.74" y1="46.0127" x2="203.74" y2="83.5037"
            gradientUnits="userSpaceOnUse">
            <stop stop-color="#DED9FE" />
            <stop offset="1" stop-color="#F4F2FD" />
        </linearGradient>
        <linearGradient id="paint1_linear_328_1418" x1="138.604" y1="20.4502" x2="138.604" y2="83.5033"
            gradientUnits="userSpaceOnUse">
            <stop stop-color="#C6BDF9" />
            <stop offset="1" stop-color="#F8F6FE" />
        </linearGradient>
        <linearGradient id="paint2_linear_328_1418" x1="161.326" y1="11.5886" x2="144.663" y2="11.5886"
            gradientUnits="userSpaceOnUse">
            <stop offset="0.485577" stop-color="#B09EFC" />
            <stop offset="0.644231" stop-color="#D9D0FD" />
            <stop offset="1" stop-color="#D9D0FD" />
        </linearGradient>
        <linearGradient id="paint3_linear_328_1418" x1="179.503" y1="20.4502" x2="179.503" y2="83.5033"
            gradientUnits="userSpaceOnUse">
            <stop stop-color="#CABDFC" />
            <stop offset="1" stop-color="#EDEBF5" />
        </linearGradient>
        <linearGradient id="paint4_linear_328_1418" x1="134.817" y1="39.1957" x2="139.322" y2="43.7811"
            gradientUnits="userSpaceOnUse">
            <stop stop-color="#D0C3FD" />
            <stop offset="1" stop-color="#DBD3FC" stop-opacity="0" />
        </linearGradient>
        <linearGradient id="paint5_linear_328_1418" x1="60.5917" y1="56.2364" x2="79.7391" y2="77.8981"
            gradientUnits="userSpaceOnUse">
            <stop stop-color="#DAD4FD" />
            <stop offset="1" stop-color="#EDEAFD" />
        </linearGradient>
        <linearGradient id="paint6_linear_328_1418" x1="57.563" y1="57.9405" x2="32.1773" y2="80.5057"
            gradientUnits="userSpaceOnUse">
            <stop stop-color="#E7E3FE" />
            <stop offset="1" stop-color="#F5F3FD" />
        </linearGradient>
    </defs>
</svg>
