<svg width="176" height="153" viewBox="0 0 176 153" fill="none" xmlns="http://www.w3.org/2000/svg">
<g filter="url(#filter0_f_249_781)">
<ellipse cx="63.5" cy="132.945" rx="59.5" ry="15.5" fill="url(#paint0_radial_249_781)"/>
<ellipse cx="63.5" cy="132.945" rx="59.5" ry="15.5" fill="url(#paint1_linear_249_781)"/>
</g>
<g filter="url(#filter1_f_249_781)">
<ellipse cx="111.905" cy="124.478" rx="60.3007" ry="15.5" transform="rotate(8.2911 111.905 124.478)" fill="url(#paint2_radial_249_781)"/>
</g>
<g filter="url(#filter2_di_249_781)">
<path d="M12.3782 61.2867C10.8023 57.7565 12.3866 53.6171 15.9168 52.0412L77.8616 24.3884C81.3905 22.8131 85.5285 24.3955 87.1057 27.9236L123.038 108.302C124.584 111.761 123.098 115.822 119.685 117.467L58.4968 146.929C54.9419 148.64 50.676 147.077 49.0678 143.475L12.3782 61.2867Z" fill="url(#paint3_linear_249_781)"/>
</g>
<g filter="url(#filter3_di_249_781)">
<path d="M35.5638 35.1658C34.6887 31.4002 37.032 27.6381 40.7976 26.763L106.874 11.4075C110.638 10.5327 114.399 12.8739 115.276 16.6377L135.251 102.387C136.11 106.077 133.878 109.78 130.214 110.745L64.5366 128.021C60.721 129.024 56.8305 126.678 55.9375 122.835L35.5638 35.1658Z" fill="url(#paint4_linear_249_781)"/>
</g>
<path d="M105.824 38.2355L52.7592 50.564C51.6833 50.814 51.0138 51.8888 51.2637 52.9647L51.7163 54.9128C51.9663 55.9887 53.0411 56.6583 54.1171 56.4083L107.181 44.0799C108.257 43.8299 108.927 42.7551 108.677 41.6791L108.224 39.731C107.974 38.6551 106.899 37.9856 105.824 38.2355Z" fill="#B8BFED"/>
<path d="M109.897 55.7687L56.8327 68.0972C55.7568 68.3472 55.0873 69.422 55.3372 70.4979L55.7898 72.446C56.0398 73.5219 57.1146 74.1915 58.1905 73.9415L111.255 61.6131C112.331 61.3631 113 60.2883 112.75 59.2123L112.298 57.2642C112.048 56.1883 110.973 55.5188 109.897 55.7687Z" fill="#B6BCEA"/>
<g filter="url(#filter4_di_249_781)">
<path d="M60.5752 16.1497C60.2575 12.2968 63.1234 8.91588 66.9763 8.59822L134.584 3.02405C138.435 2.7065 141.816 5.57021 142.135 9.42153L149.416 97.1649C149.729 100.941 146.982 104.28 143.216 104.701L75.7237 112.233C71.8028 112.67 68.2951 109.783 67.971 105.851L60.5752 16.1497Z" fill="url(#paint5_linear_249_781)"/>
</g>
<path d="M129.64 29.4138L75.3461 33.887C74.2452 33.9777 73.4263 34.9437 73.517 36.0445L73.6813 38.0378C73.772 39.1386 74.7379 39.9575 75.8387 39.8668L130.132 35.3935C131.233 35.3028 132.052 34.3369 131.961 33.236L131.797 31.2428C131.706 30.1419 130.741 29.3231 129.64 29.4138Z" fill="#D3DEEF"/>
<path d="M131.118 47.3532L76.8241 51.8265C75.7232 51.9172 74.9043 52.8831 74.995 53.984L75.1593 55.9772C75.25 57.0781 76.2159 57.8969 77.3167 57.8062L131.61 53.3329C132.711 53.2422 133.53 52.2763 133.439 51.1755L133.275 49.1822C133.184 48.0814 132.219 47.2625 131.118 47.3532Z" fill="#D2DCF2"/>
<path d="M94.1435 68.4603L78.3021 69.7655C77.2012 69.8562 76.3823 70.8221 76.473 71.9229L76.6373 73.9162C76.728 75.017 77.6939 75.8359 78.7947 75.7452L94.6362 74.44C95.737 74.3493 96.5559 73.3834 96.4652 72.2825L96.3009 70.2893C96.2102 69.1885 95.2443 68.3696 94.1435 68.4603Z" fill="#E4E7F8"/>
<path d="M136.789 102.085C139.618 103.333 142.841 103.333 145.669 102.085L158.375 96.4795V115.513L144.275 121.318C142.324 122.122 140.134 122.122 138.183 121.318L124.083 115.513V96.4795L136.789 102.085Z" fill="#7F88EA" stroke="white" stroke-width="2"/>
<path d="M138.717 77.7407C140.492 76.9713 142.508 76.9713 144.283 77.7407L169.859 88.8237C170.622 89.1542 170.672 90.217 169.944 90.6177L144.873 104.407C142.773 105.562 140.227 105.562 138.127 104.407L113.056 90.6177C112.328 90.217 112.378 89.1542 113.141 88.8237L138.717 77.7407Z" fill="#7F88EA" stroke="white" stroke-width="2"/>
<path d="M141.55 86.9448C142.654 86.9448 143.55 87.8403 143.55 88.9448C143.55 90.0494 142.654 90.9448 141.55 90.9448C141.187 90.9448 140.847 90.8464 140.554 90.6772L125.931 97.2495V104.208C127.283 104.83 128.25 106.492 128.25 108.445C128.25 110.397 127.282 112.058 125.931 112.681V112.866H125.4C125.19 112.917 124.972 112.945 124.75 112.945C124.527 112.945 124.31 112.917 124.099 112.866H123.55V112.672C122.208 112.043 121.25 110.388 121.25 108.445C121.25 106.502 122.208 104.846 123.55 104.216V95.7104L139.602 88.4956C139.806 87.6075 140.6 86.9448 141.55 86.9448Z" fill="white"/>
<defs>
<filter id="filter0_f_249_781" x="0" y="113.445" width="127" height="39" filterUnits="userSpaceOnUse" color-interpolation-filters="sRGB">
<feFlood flood-opacity="0" result="BackgroundImageFix"/>
<feBlend mode="normal" in="SourceGraphic" in2="BackgroundImageFix" result="shape"/>
<feGaussianBlur stdDeviation="2" result="effect1_foregroundBlur_249_781"/>
</filter>
<filter id="filter1_f_249_781" x="48.1924" y="102.844" width="127.426" height="43.269" filterUnits="userSpaceOnUse" color-interpolation-filters="sRGB">
<feFlood flood-opacity="0" result="BackgroundImageFix"/>
<feBlend mode="normal" in="SourceGraphic" in2="BackgroundImageFix" result="shape"/>
<feGaussianBlur stdDeviation="2" result="effect1_foregroundBlur_249_781"/>
</filter>
<filter id="filter2_di_249_781" x="10.7685" y="20.7788" width="119.881" height="131.844" filterUnits="userSpaceOnUse" color-interpolation-filters="sRGB">
<feFlood flood-opacity="0" result="BackgroundImageFix"/>
<feColorMatrix in="SourceAlpha" type="matrix" values="0 0 0 0 0 0 0 0 0 0 0 0 0 0 0 0 0 0 127 0" result="hardAlpha"/>
<feOffset dx="3" dy="1"/>
<feGaussianBlur stdDeviation="2"/>
<feComposite in2="hardAlpha" operator="out"/>
<feColorMatrix type="matrix" values="0 0 0 0 0 0 0 0 0 0 0 0 0 0 0 0 0 0 0.25 0"/>
<feBlend mode="normal" in2="BackgroundImageFix" result="effect1_dropShadow_249_781"/>
<feBlend mode="normal" in="SourceGraphic" in2="effect1_dropShadow_249_781" result="shape"/>
<feColorMatrix in="SourceAlpha" type="matrix" values="0 0 0 0 0 0 0 0 0 0 0 0 0 0 0 0 0 0 127 0" result="hardAlpha"/>
<feOffset dy="2"/>
<feGaussianBlur stdDeviation="2"/>
<feComposite in2="hardAlpha" operator="arithmetic" k2="-1" k3="1"/>
<feColorMatrix type="matrix" values="0 0 0 0 0.6 0 0 0 0 0.576471 0 0 0 0 0.87451 0 0 0 1 0"/>
<feBlend mode="normal" in2="shape" result="effect2_innerShadow_249_781"/>
</filter>
<filter id="filter3_di_249_781" x="34.3806" y="8.22412" width="108.054" height="125.029" filterUnits="userSpaceOnUse" color-interpolation-filters="sRGB">
<feFlood flood-opacity="0" result="BackgroundImageFix"/>
<feColorMatrix in="SourceAlpha" type="matrix" values="0 0 0 0 0 0 0 0 0 0 0 0 0 0 0 0 0 0 127 0" result="hardAlpha"/>
<feOffset dx="3" dy="1"/>
<feGaussianBlur stdDeviation="2"/>
<feComposite in2="hardAlpha" operator="out"/>
<feColorMatrix type="matrix" values="0 0 0 0 0 0 0 0 0 0 0 0 0 0 0 0 0 0 0.25 0"/>
<feBlend mode="normal" in2="BackgroundImageFix" result="effect1_dropShadow_249_781"/>
<feBlend mode="normal" in="SourceGraphic" in2="effect1_dropShadow_249_781" result="shape"/>
<feColorMatrix in="SourceAlpha" type="matrix" values="0 0 0 0 0 0 0 0 0 0 0 0 0 0 0 0 0 0 127 0" result="hardAlpha"/>
<feOffset dy="2"/>
<feGaussianBlur stdDeviation="2"/>
<feComposite in2="hardAlpha" operator="arithmetic" k2="-1" k3="1"/>
<feColorMatrix type="matrix" values="0 0 0 0 0.713726 0 0 0 0 0.737255 0 0 0 0 0.960784 0 0 0 1 0"/>
<feBlend mode="normal" in2="shape" result="effect2_innerShadow_249_781"/>
</filter>
<filter id="filter4_di_249_781" x="59.5511" y="0" width="96.889" height="117.277" filterUnits="userSpaceOnUse" color-interpolation-filters="sRGB">
<feFlood flood-opacity="0" result="BackgroundImageFix"/>
<feColorMatrix in="SourceAlpha" type="matrix" values="0 0 0 0 0 0 0 0 0 0 0 0 0 0 0 0 0 0 127 0" result="hardAlpha"/>
<feOffset dx="3" dy="1"/>
<feGaussianBlur stdDeviation="2"/>
<feComposite in2="hardAlpha" operator="out"/>
<feColorMatrix type="matrix" values="0 0 0 0 0 0 0 0 0 0 0 0 0 0 0 0 0 0 0.25 0"/>
<feBlend mode="normal" in2="BackgroundImageFix" result="effect1_dropShadow_249_781"/>
<feBlend mode="normal" in="SourceGraphic" in2="effect1_dropShadow_249_781" result="shape"/>
<feColorMatrix in="SourceAlpha" type="matrix" values="0 0 0 0 0 0 0 0 0 0 0 0 0 0 0 0 0 0 127 0" result="hardAlpha"/>
<feOffset dy="2"/>
<feGaussianBlur stdDeviation="2"/>
<feComposite in2="hardAlpha" operator="arithmetic" k2="-1" k3="1"/>
<feColorMatrix type="matrix" values="0 0 0 0 0.921569 0 0 0 0 0.929412 0 0 0 0 0.972549 0 0 0 1 0"/>
<feBlend mode="normal" in2="shape" result="effect2_innerShadow_249_781"/>
</filter>
<radialGradient id="paint0_radial_249_781" cx="0" cy="0" r="1" gradientUnits="userSpaceOnUse" gradientTransform="translate(63.5 132.945) scale(100 26.0504)">
<stop offset="0.303607" stop-color="#BFBDF4"/>
<stop offset="1" stop-color="white"/>
</radialGradient>
<linearGradient id="paint1_linear_249_781" x1="14.5" y1="132.945" x2="45.5" y2="132.945" gradientUnits="userSpaceOnUse">
<stop stop-color="white"/>
<stop offset="1" stop-color="white" stop-opacity="0"/>
</linearGradient>
<radialGradient id="paint2_radial_249_781" cx="0" cy="0" r="1" gradientUnits="userSpaceOnUse" gradientTransform="translate(111.905 124.478) scale(101.346 26.0504)">
<stop offset="0.303607" stop-color="#BFBDF4"/>
<stop offset="1" stop-color="white"/>
</radialGradient>
<linearGradient id="paint3_linear_249_781" x1="11.3468" y1="58.4211" x2="124.72" y2="113.019" gradientUnits="userSpaceOnUse">
<stop stop-color="#A59CE3"/>
<stop offset="0.5" stop-color="#C7AEE4"/>
<stop offset="1" stop-color="#AE98DE"/>
</linearGradient>
<linearGradient id="paint4_linear_249_781" x1="35.0967" y1="32.1563" x2="136.004" y2="107.337" gradientUnits="userSpaceOnUse">
<stop stop-color="#CACDF3"/>
<stop offset="0.5" stop-color="#E0D7F1"/>
<stop offset="1" stop-color="#C1B7F4"/>
</linearGradient>
<linearGradient id="paint5_linear_249_781" x1="60.5511" y1="13.1042" x2="149.44" y2="102.172" gradientUnits="userSpaceOnUse">
<stop stop-color="#DBE0F7"/>
<stop offset="0.504808" stop-color="white"/>
</linearGradient>
</defs>
</svg>
